<svg width="150" height="240" viewBox="0 0 150 240" fill="none" xmlns="http://www.w3.org/2000/svg">
<mask id="mask0_13_16" style="mask-type:alpha" maskUnits="userSpaceOnUse" x="0" y="0" width="150" height="240">
<rect width="150" height="240" rx="5" fill="#D0BC52"/>
</mask>
<g mask="url(#mask0_13_16)">
<rect width="150" height="240" rx="5" fill="#DCCE83"/>
<path d="M331.946 48.2766L-200.948 117.731" stroke="black" stroke-width="0.2"/>
<path d="M303.086 -42.5048L-172.087 208.513" stroke="black" stroke-width="0.2"/>
<path d="M-71.8403 -147.953L202.84 313.945" stroke="black" stroke-width="0.2"/>
<path d="M71.3827 -185.64L59.6172 351.632" stroke="black" stroke-width="0.2"/>
<path d="M195.367 -152.237L-64.3673 318.229" stroke="black" stroke-width="0.2"/>
<path d="M291.636 207.636L-88.3638 -172.364" stroke="black" stroke-width="0.2"/>
<path d="M368.083 -17.0875L-164.811 52.3672" stroke="black" stroke-width="0.2"/>
<path d="M339.223 -107.869L-135.951 143.149" stroke="black" stroke-width="0.2"/>
<path d="M-35.7041 -213.31L238.976 248.589" stroke="black" stroke-width="0.2"/>
<path d="M107.519 -251.004L95.7534 286.269" stroke="black" stroke-width="0.2"/>
<path d="M231.503 -217.593L-28.2311 252.873" stroke="black" stroke-width="0.2"/>
<path d="M252.636 424.638L-127.364 44.6379" stroke="black" stroke-width="0.2"/>
<path d="M329.083 199.907L-203.811 269.362" stroke="black" stroke-width="0.2"/>
<path d="M300.223 109.126L-174.951 360.143" stroke="black" stroke-width="0.2"/>
<path d="M-74.7041 3.68507L199.976 465.584" stroke="black" stroke-width="0.2"/>
<path d="M192.503 -0.598242L-67.2311 469.867" stroke="black" stroke-width="0.2"/>
<path d="M321.636 299.636L-58.3638 -80.3636" stroke="black" stroke-width="0.2"/>
<path d="M398.083 74.9104L-134.811 144.365" stroke="black" stroke-width="0.2"/>
<path d="M369.223 -15.8711L-105.951 235.147" stroke="black" stroke-width="0.2"/>
<path d="M-5.7041 -121.315L268.976 340.584" stroke="black" stroke-width="0.2"/>
<path d="M137.519 -159.002L125.753 378.271" stroke="black" stroke-width="0.2"/>
<path d="M261.503 -125.598L1.76889 344.867" stroke="black" stroke-width="0.2"/>
<path d="M212.636 313.636L-167.364 -66.3636" stroke="black" stroke-width="0.2"/>
<path d="M260.223 -1.87216L-214.951 249.145" stroke="black" stroke-width="0.2"/>
<path d="M-114.704 -107.314L159.976 354.585" stroke="black" stroke-width="0.2"/>
<path d="M28.5189 -145.001L16.7534 392.272" stroke="black" stroke-width="0.2"/>
<path d="M152.503 -111.597L-107.231 358.869" stroke="black" stroke-width="0.2"/>
<path d="M201.636 219.636L-178.364 -160.364" stroke="black" stroke-width="0.2"/>
<path d="M249.223 -95.8725L-225.951 155.145" stroke="black" stroke-width="0.2"/>
<path d="M-125.704 -201.313L148.976 260.586" stroke="black" stroke-width="0.2"/>
<path d="M17.5189 -239L5.75345 298.272" stroke="black" stroke-width="0.2"/>
<path d="M141.503 -205.597L-118.231 264.869" stroke="black" stroke-width="0.2"/>
<path d="M75.7278 167.42L64.4009 111.576L96.1015 189.038L101.688 159.919L116.269 140.607L96.1015 189.038L117.645 169.005L173.259 157.461L96.1015 189.038L124.917 194.423L144.437 209.434L96.1015 189.038L115.717 210.54L127.653 266.134L96.1015 189.038L90.2434 217.841L75.5183 237.497L96.1015 189.038L74.2642 209.048L18.7006 220.713L96.1015 189.038L66.8932 183.387L47.5003 169.034L96.1015 189.038L75.7278 167.42Z" fill="#070D2D"/>
<path d="M64.4009 111.576L75.7278 167.42L96.1016 189.038M64.4009 111.576L95.3523 159.389M64.4009 111.576L96.1016 189.038M116.269 140.607L101.688 159.919L96.1016 189.038M116.269 140.607L112.724 164.631M116.269 140.607L96.1016 189.038M173.259 157.461L117.645 169.005L96.1016 189.038M173.259 157.461L125.409 187.975M173.259 157.461L96.1016 189.038M144.437 209.434L124.917 194.423L96.1016 189.038M144.437 209.434L120.351 205.52M144.437 209.434L96.1016 189.038M127.653 266.134L115.717 210.54L96.1016 189.038M127.653 266.134L97.0672 218.172M127.653 266.134L96.1016 189.038M75.5183 237.497L90.2434 217.841L96.1016 189.038M75.5183 237.497L79.0857 213.179M75.5183 237.497L96.1016 189.038M18.7006 220.713L74.2642 209.048L96.1016 189.038M18.7006 220.713L66.4013 189.835M18.7006 220.713C48.9276 208.343 65.8746 201.408 96.1016 189.038M47.5003 169.034L66.8932 183.387L96.1016 189.038M47.5003 169.034L71.5814 172.24M47.5003 169.034L96.1016 189.038" stroke="black" stroke-width="0.5"/>
<path d="M64.4009 111.576L95.3523 159.389L96.1016 189.038L116.269 140.607L112.724 164.631L96.1016 189.038L173.259 157.461L125.409 187.975L96.1016 189.038L144.437 209.434L120.351 205.52L96.1016 189.038L127.653 266.134L97.0672 218.172L96.1016 189.038L75.5183 237.497L79.0858 213.18L96.1016 189.038L18.7007 220.713L66.4013 189.835L96.1016 189.038L47.5003 169.034L71.5814 172.24L96.1016 189.038L64.4009 111.576Z" fill="#DCCE83"/>
<path d="M75.7278 167.42L64.4009 111.576M64.4009 111.576L95.3523 159.389L96.1016 189.038M64.4009 111.576L96.1016 189.038M101.688 159.919L116.269 140.607M116.269 140.607L112.724 164.631L96.1016 189.038M116.269 140.607L96.1016 189.038M117.645 169.005L173.259 157.461M173.259 157.461L125.409 187.975L96.1016 189.038M173.259 157.461L96.1016 189.038M124.917 194.423L144.437 209.434M144.437 209.434L120.351 205.52L96.1016 189.038M144.437 209.434L96.1016 189.038M115.717 210.54L127.653 266.134M127.653 266.134L97.0672 218.172L96.1016 189.038M127.653 266.134L96.1016 189.038M90.2434 217.841L75.5183 237.497M75.5183 237.497L79.0858 213.18L96.1016 189.038M75.5183 237.497L96.1016 189.038M74.2642 209.048L18.7007 220.713M18.7007 220.713L66.4013 189.835L96.1016 189.038M18.7007 220.713C48.9276 208.343 65.8746 201.408 96.1016 189.038M66.8932 183.387L47.5003 169.034M47.5003 169.034L71.5814 172.24L96.1016 189.038M47.5003 169.034L96.1016 189.038" stroke="black" stroke-width="0.5"/>
<path d="M125.891 177.302C132.323 193.02 124.796 210.976 109.079 217.408C93.361 223.84 75.4051 216.313 68.9728 200.596C62.5405 184.878 70.0676 166.922 85.7851 160.49C101.503 154.058 119.459 161.585 125.891 177.302Z" fill="#DCCE83" stroke="black" stroke-width="0.5"/>
<circle cx="97.1712" cy="188.582" r="28.5" transform="rotate(-22.2566 97.1712 188.582)" fill="#DCCE83" stroke="black" stroke-width="0.5"/>
<path d="M111.333 192C107.837 192 105 188.809 105 184.875C105 181.491 109.295 175.141 110.495 173.434C110.693 173.156 110.987 173 111.304 173H111.363C111.68 173 111.973 173.156 112.171 173.434C113.372 175.141 117.667 181.491 117.667 184.875C117.667 188.809 114.83 192 111.333 192ZM108.167 185.469C108.167 185.142 107.929 184.875 107.639 184.875C107.349 184.875 107.111 185.142 107.111 185.469C107.111 187.766 108.764 189.625 110.806 189.625C111.096 189.625 111.333 189.358 111.333 189.031C111.333 188.705 111.096 188.438 110.806 188.438C109.348 188.438 108.167 187.109 108.167 185.469Z" fill="#1044D1"/>
<path d="M91.4889 165.11L92.0606 164.319C92.2036 164.119 92.4323 164 92.6717 164C93.0898 164 93.4329 164.356 93.4329 164.79V165.614C93.4329 166.1 93.6258 166.568 93.9653 166.902L96.9921 169.9C98.7359 171.63 99.7222 174.027 99.7222 176.532C99.7222 180.105 96.9349 183 93.4936 183H92.8611C89.0732 183 86 179.809 86 175.875V175.734C86 173.923 86.6933 172.186 87.9261 170.906L88.0512 170.776C88.2013 170.62 88.4085 170.531 88.6229 170.531C89.0696 170.531 89.4306 170.906 89.4306 171.37V174.688C89.4306 175.997 90.4561 177.062 91.7176 177.062C92.979 177.062 94.0046 175.997 94.0046 174.688V174.543C94.0046 173.875 93.7473 173.233 93.2935 172.762L91.9141 171.329C91.0565 170.438 90.5741 169.225 90.5741 167.963C90.5741 166.935 90.8957 165.93 91.4889 165.11Z" fill="#AF2424"/>
<path d="M87.3974 187.655C87.6278 187.147 87.456 186.553 86.9834 186.227C86.5109 185.9 85.8665 185.93 85.4251 186.293L75.4273 194.606C75.0368 194.932 74.8962 195.455 75.0797 195.916C75.2633 196.376 75.7319 196.687 76.2513 196.687H80.6059L77.6026 203.345C77.3722 203.853 77.544 204.447 78.0166 204.773C78.4891 205.1 79.1335 205.07 79.5749 204.707L89.5727 196.394C89.9632 196.068 90.1038 195.545 89.9203 195.084C89.7367 194.624 89.272 194.316 88.7486 194.316H84.3941L87.3974 187.655Z" fill="#DCB33E"/>
<path d="M105.688 195.188C105.688 195.844 106.218 196.375 106.875 196.375H108.062C108.719 196.375 109.25 196.906 109.25 197.562C109.25 198.219 108.719 198.75 108.062 198.75H96.1875C95.5307 198.75 95 199.281 95 199.938C95 200.594 95.5307 201.125 96.1875 201.125H108.062C110.029 201.125 111.625 199.529 111.625 197.562C111.625 195.596 110.029 194 108.062 194H106.875C106.218 194 105.688 194.531 105.688 195.188ZM108.062 208.25C108.062 208.907 108.593 209.438 109.25 209.438H110.438C112.404 209.438 114 207.842 114 205.875C114 203.908 112.404 202.312 110.438 202.312H96.1875C95.5307 202.312 95 202.843 95 203.5C95 204.157 95.5307 204.688 96.1875 204.688H110.438C111.094 204.688 111.625 205.218 111.625 205.875C111.625 206.532 111.094 207.062 110.438 207.062H109.25C108.593 207.062 108.062 207.593 108.062 208.25ZM99.75 213H100.938C102.904 213 104.5 211.404 104.5 209.438C104.5 207.471 102.904 205.875 100.938 205.875H96.1875C95.5307 205.875 95 206.406 95 207.062C95 207.719 95.5307 208.25 96.1875 208.25H100.938C101.594 208.25 102.125 208.781 102.125 209.438C102.125 210.094 101.594 210.625 100.938 210.625H99.75C99.0932 210.625 98.5625 211.156 98.5625 211.812C98.5625 212.469 99.0932 213 99.75 213Z" fill="#52AC57"/>
</g>
</svg>
